<mxfile host="app.diagrams.net" modified="2024-06-20T11:32:32.515Z" agent="Mozilla/5.0 (Macintosh; Intel Mac OS X 10_15_7) AppleWebKit/537.36 (KHTML, like Gecko) Chrome/122.0.0.0 Safari/537.36" version="24.0.5" etag="9PWDOhX6jYuwTXzvfEZM" type="github">
  <diagram name="Page-1" id="GszAV_IYUOFkDR1eS99b">
    <mxGraphModel>
      <root>
        <mxCell id="0" />
        <mxCell id="1" parent="0" />
      </root>
    </mxGraphModel>
  </diagram>
</mxfile>
